<mxfile host="Electron" modified="2024-03-07T00:16:29.434Z" agent="Mozilla/5.0 (Windows NT 10.0; Win64; x64) AppleWebKit/537.36 (KHTML, like Gecko) draw.io/23.1.5 Chrome/120.0.6099.109 Electron/28.1.0 Safari/537.36" etag="ooVRsiHKwBRQm3RAEDMz" version="23.1.5" type="device">
  <diagram name="Page-1" id="9y2ofkwwcVGh2S30rZgs">
    <mxGraphModel dx="780" dy="496" grid="1" gridSize="10" guides="1" tooltips="1" connect="1" arrows="1" fold="1" page="1" pageScale="1" pageWidth="850" pageHeight="1100" math="0" shadow="0">
      <root>
        <mxCell id="0" />
        <mxCell id="1" parent="0" />
        <mxCell id="5rSNbxN1RCcZbzqEIiOP-8" value="" style="rounded=1;whiteSpace=wrap;html=1;fillColor=#d5e8d4;strokeColor=#82b366;" vertex="1" parent="1">
          <mxGeometry x="150" y="100" width="340" height="320" as="geometry" />
        </mxCell>
        <mxCell id="5rSNbxN1RCcZbzqEIiOP-7" style="edgeStyle=orthogonalEdgeStyle;rounded=0;orthogonalLoop=1;jettySize=auto;html=1;entryX=0.5;entryY=0;entryDx=0;entryDy=0;" edge="1" parent="1" source="5rSNbxN1RCcZbzqEIiOP-1" target="5rSNbxN1RCcZbzqEIiOP-3">
          <mxGeometry relative="1" as="geometry" />
        </mxCell>
        <mxCell id="5rSNbxN1RCcZbzqEIiOP-1" value="Application Layer" style="rounded=1;whiteSpace=wrap;html=1;fillColor=#dae8fc;strokeColor=#6c8ebf;" vertex="1" parent="1">
          <mxGeometry x="340" y="230" width="120" height="60" as="geometry" />
        </mxCell>
        <mxCell id="5rSNbxN1RCcZbzqEIiOP-6" style="edgeStyle=orthogonalEdgeStyle;rounded=0;orthogonalLoop=1;jettySize=auto;html=1;entryX=0.5;entryY=0;entryDx=0;entryDy=0;" edge="1" parent="1" source="5rSNbxN1RCcZbzqEIiOP-2" target="5rSNbxN1RCcZbzqEIiOP-1">
          <mxGeometry relative="1" as="geometry" />
        </mxCell>
        <mxCell id="5rSNbxN1RCcZbzqEIiOP-2" value="Presentation Layer" style="rounded=1;whiteSpace=wrap;html=1;fillColor=#dae8fc;strokeColor=#6c8ebf;" vertex="1" parent="1">
          <mxGeometry x="340" y="130" width="120" height="60" as="geometry" />
        </mxCell>
        <mxCell id="5rSNbxN1RCcZbzqEIiOP-3" value="Data Layer" style="rounded=1;whiteSpace=wrap;html=1;fillColor=#dae8fc;strokeColor=#6c8ebf;" vertex="1" parent="1">
          <mxGeometry x="340" y="330" width="120" height="60" as="geometry" />
        </mxCell>
        <mxCell id="5rSNbxN1RCcZbzqEIiOP-4" value="Security Layer" style="rounded=1;whiteSpace=wrap;html=1;fillColor=#fff2cc;strokeColor=#d6b656;" vertex="1" parent="1">
          <mxGeometry x="260" y="130" width="60" height="260" as="geometry" />
        </mxCell>
        <mxCell id="5rSNbxN1RCcZbzqEIiOP-9" value="Infrastruture Layer" style="text;html=1;align=center;verticalAlign=middle;whiteSpace=wrap;rounded=0;" vertex="1" parent="1">
          <mxGeometry x="170" y="245" width="60" height="30" as="geometry" />
        </mxCell>
      </root>
    </mxGraphModel>
  </diagram>
</mxfile>
